<svg width="108" height="182" fill="none" xmlns="http://www.w3.org/2000/svg"><circle cx="104.525" cy="3.416" r="3.416" transform="rotate(90 104.525 3.416)" fill="#fff"/><circle cx="79.247" cy="3.416" r="3.416" transform="rotate(90 79.247 3.416)" fill="#fff"/><circle cx="53.97" cy="3.416" r="3.416" transform="rotate(90 53.97 3.416)" fill="#fff"/><circle cx="28.693" cy="3.416" r="3.416" transform="rotate(90 28.693 3.416)" fill="#fff"/><circle cx="3.416" cy="3.416" r="3.416" transform="rotate(90 3.416 3.416)" fill="#fff"/><circle cx="104.525" cy="25.277" r="3.416" transform="rotate(90 104.525 25.277)" fill="#fff"/><circle cx="79.247" cy="25.277" r="3.416" transform="rotate(90 79.247 25.277)" fill="#fff"/><circle cx="53.97" cy="25.277" r="3.416" transform="rotate(90 53.97 25.277)" fill="#fff"/><circle cx="28.693" cy="25.277" r="3.416" transform="rotate(90 28.693 25.277)" fill="#fff"/><circle cx="3.416" cy="25.277" r="3.416" transform="rotate(90 3.416 25.277)" fill="#fff"/><circle cx="104.525" cy="47.139" r="3.416" transform="rotate(90 104.525 47.139)" fill="#fff"/><circle cx="79.247" cy="47.139" r="3.416" transform="rotate(90 79.247 47.139)" fill="#fff"/><circle cx="53.97" cy="47.139" r="3.416" transform="rotate(90 53.97 47.139)" fill="#fff"/><circle cx="28.693" cy="47.139" r="3.416" transform="rotate(90 28.693 47.139)" fill="#fff"/><circle cx="3.416" cy="47.139" r="3.416" transform="rotate(90 3.416 47.139)" fill="#fff"/><circle cx="104.525" cy="69" r="3.416" transform="rotate(90 104.525 69)" fill="#fff"/><circle cx="79.247" cy="69" r="3.416" transform="rotate(90 79.247 69)" fill="#fff"/><circle cx="53.97" cy="69" r="3.416" transform="rotate(90 53.97 69)" fill="#fff"/><circle cx="28.693" cy="69" r="3.416" transform="rotate(90 28.693 69)" fill="#fff"/><circle cx="3.416" cy="69" r="3.416" transform="rotate(90 3.416 69)" fill="#fff"/><circle cx="104.525" cy="90.861" r="3.416" transform="rotate(90 104.525 90.861)" fill="#fff"/><circle cx="79.247" cy="90.861" r="3.416" transform="rotate(90 79.247 90.861)" fill="#fff"/><circle cx="53.97" cy="90.861" r="3.416" transform="rotate(90 53.97 90.861)" fill="#fff"/><circle cx="28.693" cy="90.861" r="3.416" transform="rotate(90 28.693 90.861)" fill="#fff"/><circle cx="3.416" cy="90.861" r="3.416" transform="rotate(90 3.416 90.861)" fill="#fff"/><circle cx="104.525" cy="112.723" r="3.416" transform="rotate(90 104.525 112.723)" fill="#fff"/><circle cx="79.247" cy="112.723" r="3.416" transform="rotate(90 79.247 112.723)" fill="#fff"/><circle cx="53.97" cy="112.723" r="3.416" transform="rotate(90 53.97 112.723)" fill="#fff"/><circle cx="28.693" cy="112.723" r="3.416" transform="rotate(90 28.693 112.723)" fill="#fff"/><circle cx="3.416" cy="112.723" r="3.416" transform="rotate(90 3.416 112.723)" fill="#fff"/><circle cx="104.525" cy="134.584" r="3.416" transform="rotate(90 104.525 134.584)" fill="#fff"/><circle cx="79.247" cy="134.584" r="3.416" transform="rotate(90 79.247 134.584)" fill="#fff"/><circle cx="53.97" cy="134.584" r="3.416" transform="rotate(90 53.97 134.584)" fill="#fff"/><circle cx="28.693" cy="134.584" r="3.416" transform="rotate(90 28.693 134.584)" fill="#fff"/><circle cx="3.416" cy="134.584" r="3.416" transform="rotate(90 3.416 134.584)" fill="#fff"/><circle cx="104.525" cy="156.446" r="3.416" transform="rotate(90 104.525 156.446)" fill="#fff"/><circle cx="79.247" cy="156.446" r="3.416" transform="rotate(90 79.247 156.446)" fill="#fff"/><circle cx="53.97" cy="156.446" r="3.416" transform="rotate(90 53.97 156.446)" fill="#fff"/><circle cx="28.693" cy="156.446" r="3.416" transform="rotate(90 28.693 156.446)" fill="#fff"/><circle cx="3.416" cy="156.446" r="3.416" transform="rotate(90 3.416 156.446)" fill="#fff"/><circle cx="104.525" cy="178.307" r="3.416" transform="rotate(90 104.525 178.307)" fill="#fff"/><circle cx="79.247" cy="178.307" r="3.416" transform="rotate(90 79.247 178.307)" fill="#fff"/><circle cx="53.97" cy="178.307" r="3.416" transform="rotate(90 53.97 178.307)" fill="#fff"/><circle cx="28.693" cy="178.307" r="3.416" transform="rotate(90 28.693 178.307)" fill="#fff"/><circle cx="3.416" cy="178.307" r="3.416" transform="rotate(90 3.416 178.307)" fill="#fff"/></svg>