<svg width="43" height="42" fill="none" xmlns="http://www.w3.org/2000/svg"><path d="M25.22 26.35h.078l.02-.075A6.91 6.91 0 0132 21.1c3.809 0 6.9 3.091 6.9 6.9s-3.091 6.9-6.9 6.9a6.91 6.91 0 01-6.683-5.175l-.019-.075H14.4v3.6a1.65 1.65 0 01-3.3 0v-3.6H7.4v3.6a1.65 1.65 0 01-3.3 0V28c0-.91.74-1.65 1.65-1.65h19.47zM35.6 28c0-1.987-1.613-3.6-3.6-3.6a3.601 3.601 0 00-3.6 3.6c0 1.987 1.613 3.6 3.6 3.6s3.6-1.613 3.6-3.6zm-21-7v-8.75a1.65 1.65 0 013.3 0V21a1.65 1.65 0 01-3.3 0zm7 0V8.75a1.65 1.65 0 013.3 0V21a1.65 1.65 0 01-3.3 0zm-14 0v-5.25a1.65 1.65 0 013.3 0V21a1.65 1.65 0 01-3.3 0z" fill="#222334" stroke="#EDD14F" stroke-width=".2"/></svg>