<svg width="43" height="42" fill="none" xmlns="http://www.w3.org/2000/svg"><path d="M35.938 9.188c0-.725-.588-1.313-1.313-1.313H8.375c-.725 0-1.313.588-1.313 1.313V10.5h28.875V9.187zM8.375 5.25h26.25a3.938 3.938 0 013.938 3.938v2.624c0 .725-.588 1.313-1.313 1.313H5.75a1.312 1.312 0 01-1.313-1.313V9.188A3.938 3.938 0 018.376 5.25z" fill="#222334"/><path d="M8.375 13.125v14.438c0 .724.588 1.312 1.313 1.312h23.624c.725 0 1.313-.588 1.313-1.313V13.126H8.375zM7.062 10.5h28.875c.725 0 1.313.588 1.313 1.313v15.75a3.938 3.938 0 01-3.938 3.937H9.689a3.938 3.938 0 01-3.938-3.938v-15.75c0-.724.588-1.312 1.313-1.312z" fill="#222334"/><path d="M13.24 25.866a1.312 1.312 0 11-1.856-1.857l5.25-5.25a1.313 1.313 0 011.604-.197l5.684 3.41 5.837-5.838a1.313 1.313 0 011.857 1.857l-6.563 6.562a1.313 1.313 0 01-1.603.197l-5.684-3.41-4.525 4.526z" fill="#222334"/><path d="M29.375 18.375H26.75a1.312 1.312 0 110-2.625h3.938c.724 0 1.312.588 1.312 1.313V21a1.312 1.312 0 11-2.625 0v-2.625zM22.813 36.75a1.312 1.312 0 11-2.625 0v-6.563a1.312 1.312 0 112.625 0v6.563z" fill="#222334"/><path d="M18.875 38.063a1.312 1.312 0 110-2.626h5.25a1.312 1.312 0 110 2.626h-5.25z" fill="#222334"/></svg>