<svg width="43" height="42" fill="none" xmlns="http://www.w3.org/2000/svg"><path d="M21.5 36.75c-8.698 0-15.75-7.052-15.75-15.75S12.802 5.25 21.5 5.25 37.25 12.302 37.25 21 30.198 36.75 21.5 36.75zm0-2.625c7.249 0 13.125-5.876 13.125-13.125S28.749 7.875 21.5 7.875 8.375 13.751 8.375 21 14.251 34.125 21.5 34.125z" fill="#222334"/><path d="M26.75 22.313a1.312 1.312 0 112.625 0v2.625a1.312 1.312 0 11-2.625 0v-2.625zM20.188 19.688a1.312 1.312 0 112.625 0v5.25a1.312 1.312 0 11-2.625 0v-5.25zM13.625 17.063a1.312 1.312 0 112.625 0v7.875a1.312 1.312 0 11-2.625 0v-7.875zM38.178 35.822a1.313 1.313 0 01-1.856 1.856l-5.25-5.25a1.313 1.313 0 011.856-1.856l5.25 5.25z" fill="#222334"/></svg>