<svg width="43" height="42" fill="none" xmlns="http://www.w3.org/2000/svg"><path d="M18.219 13.125h6.562L21.5 8.75l-3.281 4.375zm4.33-7.35l5.907 7.875c.65.865.032 2.1-1.05 2.1H15.594c-1.082 0-1.7-1.235-1.05-2.1l5.906-7.875c.525-.7 1.575-.7 2.1 0z" fill="#222334"/><path d="M29.691 13.125h4.618L32 9.167l-2.309 3.958zm3.443-7.224l4.593 7.875c.51.875-.12 1.974-1.133 1.974h-9.188a1.312 1.312 0 01-1.133-1.974l4.593-7.875a1.312 1.312 0 012.268 0z" fill="#222334"/><path d="M28.408 15.743h5.67L24.764 29.11l3.645-13.366zm-5.832 21.095L37.67 15.18a1.312 1.312 0 00-1.077-2.063h-9.187c-.592 0-1.11.397-1.266.968l-5.907 21.656c-.387 1.421 1.501 2.304 2.343 1.096zM11 9.167l-2.309 3.958h4.618L11 9.167zm1.134-3.266l4.593 7.875c.51.875-.12 1.974-1.133 1.974H6.406a1.312 1.312 0 01-1.133-1.974l4.593-7.875a1.312 1.312 0 012.268 0z" fill="#222334"/><path d="M8.92 15.743h5.671l3.645 13.366-9.315-13.366zm13.846 19.999L16.86 14.086a1.312 1.312 0 00-1.266-.968H6.406a1.313 1.313 0 00-1.077 2.063l15.094 21.657c.843 1.208 2.73.325 2.343-1.096z" fill="#222334"/><path d="M17.312 15.75h8.376L21.5 31.105 17.312 15.75zm5.454 20.69l5.906-21.657a1.313 1.313 0 00-1.266-1.658H15.594c-.866 0-1.494.823-1.267 1.658l5.906 21.656c.352 1.29 2.181 1.29 2.533 0zM11 7.875a1.312 1.312 0 110-2.625h21a1.312 1.312 0 110 2.625H11z" fill="#222334"/></svg>