<svg width="248" height="130" fill="none" xmlns="http://www.w3.org/2000/svg"><g opacity=".4" fill="#fff"><circle cx="243.892" cy="126.386" r="3.416" transform="rotate(-180 243.892 126.386)"/><circle cx="243.892" cy="101.109" r="3.416" transform="rotate(-180 243.892 101.109)"/><circle cx="243.892" cy="75.832" r="3.416" transform="rotate(-180 243.892 75.832)"/><circle cx="222.03" cy="126.386" r="3.416" transform="rotate(-180 222.03 126.386)"/><circle cx="222.03" cy="101.109" r="3.416" transform="rotate(-180 222.03 101.109)"/><circle cx="222.03" cy="75.832" r="3.416" transform="rotate(-180 222.03 75.832)"/><circle cx="200.169" cy="126.386" r="3.416" transform="rotate(-180 200.169 126.386)"/><circle cx="200.169" cy="101.109" r="3.416" transform="rotate(-180 200.169 101.109)"/><circle cx="200.169" cy="75.832" r="3.416" transform="rotate(-180 200.169 75.832)"/><circle cx="178.308" cy="126.386" r="3.416" transform="rotate(-180 178.308 126.386)"/><circle cx="178.308" cy="101.109" r="3.416" transform="rotate(-180 178.308 101.109)"/><circle cx="178.308" cy="75.832" r="3.416" transform="rotate(-180 178.308 75.832)"/><circle cx="156.446" cy="126.386" r="3.416" transform="rotate(-180 156.446 126.386)"/><circle cx="156.446" cy="101.109" r="3.416" transform="rotate(-180 156.446 101.109)"/><circle cx="156.446" cy="75.832" r="3.416" transform="rotate(-180 156.446 75.832)"/><circle cx="134.585" cy="126.386" r="3.416" transform="rotate(-180 134.585 126.386)"/><circle cx="134.585" cy="101.109" r="3.416" transform="rotate(-180 134.585 101.109)"/><circle cx="134.585" cy="75.832" r="3.416" transform="rotate(-180 134.585 75.832)"/><circle cx="112.723" cy="126.386" r="3.416" transform="rotate(-180 112.723 126.386)"/><circle cx="112.723" cy="101.109" r="3.416" transform="rotate(-180 112.723 101.109)"/><circle cx="112.723" cy="75.832" r="3.416" transform="rotate(-180 112.723 75.832)"/><circle cx="90.862" cy="126.386" r="3.416" transform="rotate(-180 90.862 126.386)"/><circle cx="90.862" cy="101.109" r="3.416" transform="rotate(-180 90.862 101.109)"/><circle cx="90.862" cy="75.832" r="3.416" transform="rotate(-180 90.862 75.832)"/><circle cx="69.001" cy="126.386" r="3.416" transform="rotate(-180 69 126.386)"/><circle cx="69.001" cy="101.109" r="3.416" transform="rotate(-180 69 101.109)"/><circle cx="69.001" cy="75.832" r="3.416" transform="rotate(-180 69 75.832)"/><circle cx="47.139" cy="126.386" r="3.416" transform="rotate(-180 47.14 126.386)"/><circle cx="47.139" cy="101.109" r="3.416" transform="rotate(-180 47.14 101.109)"/><circle cx="47.139" cy="75.832" r="3.416" transform="rotate(-180 47.14 75.832)"/><circle cx="25.278" cy="126.386" r="3.416" transform="rotate(-180 25.278 126.386)"/><circle cx="25.278" cy="101.109" r="3.416" transform="rotate(-180 25.278 101.109)"/><circle cx="25.278" cy="75.832" r="3.416" transform="rotate(-180 25.278 75.832)"/><circle cx="3.417" cy="101.109" r="3.416" transform="rotate(-180 3.417 101.109)"/><circle cx="3.416" cy="126.386" r="3.416" transform="rotate(-180 3.416 126.386)"/><circle cx="3.417" cy="75.832" r="3.416" transform="rotate(-180 3.417 75.832)"/><circle cx="243.892" cy="53.97" r="3.416" transform="rotate(-180 243.892 53.97)"/><circle cx="243.892" cy="28.693" r="3.416" transform="rotate(-180 243.892 28.693)"/><circle cx="243.892" cy="3.416" r="3.416" transform="rotate(-180 243.892 3.416)"/><circle cx="222.03" cy="53.97" r="3.416" transform="rotate(-180 222.03 53.97)"/><circle cx="222.03" cy="28.693" r="3.416" transform="rotate(-180 222.03 28.693)"/><circle cx="222.03" cy="3.416" r="3.416" transform="rotate(-180 222.03 3.416)"/><circle cx="200.169" cy="53.97" r="3.416" transform="rotate(-180 200.169 53.97)"/><circle cx="200.169" cy="28.693" r="3.416" transform="rotate(-180 200.169 28.693)"/><circle cx="200.169" cy="3.416" r="3.416" transform="rotate(-180 200.169 3.416)"/><circle cx="178.308" cy="53.97" r="3.416" transform="rotate(-180 178.308 53.97)"/><circle cx="178.308" cy="28.693" r="3.416" transform="rotate(-180 178.308 28.693)"/><circle cx="178.308" cy="3.416" r="3.416" transform="rotate(-180 178.308 3.416)"/><circle cx="156.446" cy="53.97" r="3.416" transform="rotate(-180 156.446 53.97)"/><circle cx="156.446" cy="28.693" r="3.416" transform="rotate(-180 156.446 28.693)"/><circle cx="156.446" cy="3.416" r="3.416" transform="rotate(-180 156.446 3.416)"/><circle cx="134.585" cy="53.97" r="3.416" transform="rotate(-180 134.585 53.97)"/><circle cx="134.585" cy="28.693" r="3.416" transform="rotate(-180 134.585 28.693)"/><circle cx="134.585" cy="3.416" r="3.416" transform="rotate(-180 134.585 3.416)"/><circle cx="112.723" cy="53.97" r="3.416" transform="rotate(-180 112.723 53.97)"/><circle cx="112.723" cy="28.693" r="3.416" transform="rotate(-180 112.723 28.693)"/><circle cx="112.723" cy="3.416" r="3.416" transform="rotate(-180 112.723 3.416)"/><circle cx="90.862" cy="53.97" r="3.416" transform="rotate(-180 90.862 53.97)"/><circle cx="90.862" cy="28.693" r="3.416" transform="rotate(-180 90.862 28.693)"/><circle cx="90.862" cy="3.416" r="3.416" transform="rotate(-180 90.862 3.416)"/><circle cx="69.001" cy="53.97" r="3.416" transform="rotate(-180 69 53.97)"/><circle cx="69.001" cy="28.693" r="3.416" transform="rotate(-180 69 28.693)"/><circle cx="69.001" cy="3.416" r="3.416" transform="rotate(-180 69 3.416)"/><circle cx="47.139" cy="53.97" r="3.416" transform="rotate(-180 47.14 53.97)"/><circle cx="47.139" cy="28.693" r="3.416" transform="rotate(-180 47.14 28.693)"/><circle cx="47.139" cy="3.416" r="3.416" transform="rotate(-180 47.14 3.416)"/><circle cx="25.278" cy="53.97" r="3.416" transform="rotate(-180 25.278 53.97)"/><circle cx="25.278" cy="28.693" r="3.416" transform="rotate(-180 25.278 28.693)"/><circle cx="25.278" cy="3.416" r="3.416" transform="rotate(-180 25.278 3.416)"/><circle cx="3.417" cy="28.693" r="3.416" transform="rotate(-180 3.417 28.693)"/><circle cx="3.416" cy="53.97" r="3.416" transform="rotate(-180 3.416 53.97)"/><circle cx="3.417" cy="3.416" r="3.416" transform="rotate(-180 3.417 3.416)"/></g></svg>