<svg width="130" height="248" fill="none" xmlns="http://www.w3.org/2000/svg"><circle cx="126.386" cy="3.416" r="3.416" transform="rotate(90 126.386 3.416)" fill="#E8E6E6"/><circle cx="101.109" cy="3.416" r="3.416" transform="rotate(90 101.109 3.416)" fill="#E8E6E6"/><circle cx="75.832" cy="3.416" r="3.416" transform="rotate(90 75.832 3.416)" fill="#E8E6E6"/><circle cx="126.386" cy="25.277" r="3.416" transform="rotate(90 126.386 25.277)" fill="#E8E6E6"/><circle cx="101.109" cy="25.277" r="3.416" transform="rotate(90 101.109 25.277)" fill="#E8E6E6"/><circle cx="75.832" cy="25.277" r="3.416" transform="rotate(90 75.832 25.277)" fill="#E8E6E6"/><circle cx="126.386" cy="47.139" r="3.416" transform="rotate(90 126.386 47.139)" fill="#E8E6E6"/><circle cx="101.109" cy="47.139" r="3.416" transform="rotate(90 101.109 47.139)" fill="#E8E6E6"/><circle cx="75.832" cy="47.139" r="3.416" transform="rotate(90 75.832 47.139)" fill="#E8E6E6"/><circle cx="126.386" cy="69" r="3.416" transform="rotate(90 126.386 69)" fill="#E8E6E6"/><circle cx="101.109" cy="69" r="3.416" transform="rotate(90 101.109 69)" fill="#E8E6E6"/><circle cx="75.832" cy="69" r="3.416" transform="rotate(90 75.832 69)" fill="#E8E6E6"/><circle cx="126.386" cy="90.861" r="3.416" transform="rotate(90 126.386 90.861)" fill="#E8E6E6"/><circle cx="101.109" cy="90.861" r="3.416" transform="rotate(90 101.109 90.861)" fill="#E8E6E6"/><circle cx="75.832" cy="90.861" r="3.416" transform="rotate(90 75.832 90.861)" fill="#E8E6E6"/><circle cx="126.386" cy="112.723" r="3.416" transform="rotate(90 126.386 112.723)" fill="#E8E6E6"/><circle cx="101.109" cy="112.723" r="3.416" transform="rotate(90 101.109 112.723)" fill="#E8E6E6"/><circle cx="75.832" cy="112.723" r="3.416" transform="rotate(90 75.832 112.723)" fill="#E8E6E6"/><circle cx="126.386" cy="134.584" r="3.416" transform="rotate(90 126.386 134.584)" fill="#E8E6E6"/><circle cx="101.109" cy="134.584" r="3.416" transform="rotate(90 101.109 134.584)" fill="#E8E6E6"/><circle cx="75.832" cy="134.584" r="3.416" transform="rotate(90 75.832 134.584)" fill="#E8E6E6"/><circle cx="126.386" cy="156.446" r="3.416" transform="rotate(90 126.386 156.446)" fill="#E8E6E6"/><circle cx="101.109" cy="156.446" r="3.416" transform="rotate(90 101.109 156.446)" fill="#E8E6E6"/><circle cx="75.832" cy="156.446" r="3.416" transform="rotate(90 75.832 156.446)" fill="#E8E6E6"/><circle cx="126.386" cy="178.307" r="3.416" transform="rotate(90 126.386 178.307)" fill="#E8E6E6"/><circle cx="101.109" cy="178.307" r="3.416" transform="rotate(90 101.109 178.307)" fill="#E8E6E6"/><circle cx="75.832" cy="178.307" r="3.416" transform="rotate(90 75.832 178.307)" fill="#E8E6E6"/><circle cx="126.386" cy="200.168" r="3.416" transform="rotate(90 126.386 200.168)" fill="#E8E6E6"/><circle cx="101.109" cy="200.168" r="3.416" transform="rotate(90 101.109 200.168)" fill="#E8E6E6"/><circle cx="75.832" cy="200.168" r="3.416" transform="rotate(90 75.832 200.168)" fill="#E8E6E6"/><circle cx="126.386" cy="222.03" r="3.416" transform="rotate(90 126.386 222.03)" fill="#E8E6E6"/><circle cx="101.109" cy="222.03" r="3.416" transform="rotate(90 101.109 222.03)" fill="#E8E6E6"/><circle cx="75.832" cy="222.03" r="3.416" transform="rotate(90 75.832 222.03)" fill="#E8E6E6"/><circle cx="101.109" cy="243.891" r="3.416" transform="rotate(90 101.109 243.891)" fill="#E8E6E6"/><circle cx="126.386" cy="243.891" r="3.416" transform="rotate(90 126.386 243.891)" fill="#E8E6E6"/><circle cx="75.832" cy="243.891" r="3.416" transform="rotate(90 75.832 243.891)" fill="#E8E6E6"/><circle cx="53.97" cy="3.416" r="3.416" transform="rotate(90 53.97 3.416)" fill="#E8E6E6"/><circle cx="28.693" cy="3.416" r="3.416" transform="rotate(90 28.693 3.416)" fill="#E8E6E6"/><circle cx="3.416" cy="3.416" r="3.416" transform="rotate(90 3.416 3.416)" fill="#E8E6E6"/><circle cx="53.97" cy="25.277" r="3.416" transform="rotate(90 53.97 25.277)" fill="#E8E6E6"/><circle cx="28.693" cy="25.277" r="3.416" transform="rotate(90 28.693 25.277)" fill="#E8E6E6"/><circle cx="3.416" cy="25.277" r="3.416" transform="rotate(90 3.416 25.277)" fill="#E8E6E6"/><circle cx="53.97" cy="47.139" r="3.416" transform="rotate(90 53.97 47.139)" fill="#E8E6E6"/><circle cx="28.693" cy="47.139" r="3.416" transform="rotate(90 28.693 47.139)" fill="#E8E6E6"/><circle cx="3.416" cy="47.139" r="3.416" transform="rotate(90 3.416 47.139)" fill="#E8E6E6"/><circle cx="53.97" cy="69" r="3.416" transform="rotate(90 53.97 69)" fill="#E8E6E6"/><circle cx="28.693" cy="69" r="3.416" transform="rotate(90 28.693 69)" fill="#E8E6E6"/><circle cx="3.416" cy="69" r="3.416" transform="rotate(90 3.416 69)" fill="#E8E6E6"/><circle cx="53.97" cy="90.861" r="3.416" transform="rotate(90 53.97 90.861)" fill="#E8E6E6"/><circle cx="28.693" cy="90.861" r="3.416" transform="rotate(90 28.693 90.861)" fill="#E8E6E6"/><circle cx="3.416" cy="90.861" r="3.416" transform="rotate(90 3.416 90.861)" fill="#E8E6E6"/><circle cx="53.97" cy="112.723" r="3.416" transform="rotate(90 53.97 112.723)" fill="#E8E6E6"/><circle cx="28.693" cy="112.723" r="3.416" transform="rotate(90 28.693 112.723)" fill="#E8E6E6"/><circle cx="3.416" cy="112.723" r="3.416" transform="rotate(90 3.416 112.723)" fill="#E8E6E6"/><circle cx="53.97" cy="134.584" r="3.416" transform="rotate(90 53.97 134.584)" fill="#E8E6E6"/><circle cx="28.693" cy="134.584" r="3.416" transform="rotate(90 28.693 134.584)" fill="#E8E6E6"/><circle cx="3.416" cy="134.584" r="3.416" transform="rotate(90 3.416 134.584)" fill="#E8E6E6"/><circle cx="53.97" cy="156.446" r="3.416" transform="rotate(90 53.97 156.446)" fill="#E8E6E6"/><circle cx="28.693" cy="156.446" r="3.416" transform="rotate(90 28.693 156.446)" fill="#E8E6E6"/><circle cx="3.416" cy="156.446" r="3.416" transform="rotate(90 3.416 156.446)" fill="#E8E6E6"/><circle cx="53.97" cy="178.307" r="3.416" transform="rotate(90 53.97 178.307)" fill="#E8E6E6"/><circle cx="28.693" cy="178.307" r="3.416" transform="rotate(90 28.693 178.307)" fill="#E8E6E6"/><circle cx="3.416" cy="178.307" r="3.416" transform="rotate(90 3.416 178.307)" fill="#E8E6E6"/><circle cx="53.97" cy="200.168" r="3.416" transform="rotate(90 53.97 200.168)" fill="#E8E6E6"/><circle cx="28.693" cy="200.168" r="3.416" transform="rotate(90 28.693 200.168)" fill="#E8E6E6"/><circle cx="3.416" cy="200.168" r="3.416" transform="rotate(90 3.416 200.168)" fill="#E8E6E6"/><circle cx="53.97" cy="222.03" r="3.416" transform="rotate(90 53.97 222.03)" fill="#E8E6E6"/><circle cx="28.693" cy="222.03" r="3.416" transform="rotate(90 28.693 222.03)" fill="#E8E6E6"/><circle cx="3.416" cy="222.03" r="3.416" transform="rotate(90 3.416 222.03)" fill="#E8E6E6"/><circle cx="28.693" cy="243.891" r="3.416" transform="rotate(90 28.693 243.891)" fill="#E8E6E6"/><circle cx="53.97" cy="243.891" r="3.416" transform="rotate(90 53.97 243.891)" fill="#E8E6E6"/><circle cx="3.416" cy="243.891" r="3.416" transform="rotate(90 3.416 243.891)" fill="#E8E6E6"/></svg>