<svg width="182" height="83" fill="none" xmlns="http://www.w3.org/2000/svg"><circle cx="3.416" cy="3.416" r="3.416" fill="#fff"/><circle cx="3.416" cy="28.693" r="3.416" fill="#fff"/><circle cx="3.416" cy="53.971" r="3.416" fill="#fff"/><circle cx="3.416" cy="79.247" r="3.416" fill="#fff"/><circle cx="25.277" cy="3.416" r="3.416" fill="#fff"/><circle cx="25.277" cy="28.693" r="3.416" fill="#fff"/><circle cx="25.277" cy="53.971" r="3.416" fill="#fff"/><circle cx="25.277" cy="79.247" r="3.416" fill="#fff"/><circle cx="47.139" cy="3.416" r="3.416" fill="#fff"/><circle cx="47.139" cy="28.693" r="3.416" fill="#fff"/><circle cx="47.139" cy="53.971" r="3.416" fill="#fff"/><circle cx="47.139" cy="79.247" r="3.416" fill="#fff"/><circle cx="69" cy="3.416" r="3.416" fill="#fff"/><circle cx="69" cy="28.693" r="3.416" fill="#fff"/><circle cx="69" cy="53.971" r="3.416" fill="#fff"/><circle cx="69" cy="79.247" r="3.416" fill="#fff"/><circle cx="90.861" cy="3.416" r="3.416" fill="#fff"/><circle cx="90.861" cy="28.693" r="3.416" fill="#fff"/><circle cx="90.861" cy="53.971" r="3.416" fill="#fff"/><circle cx="90.861" cy="79.247" r="3.416" fill="#fff"/><circle cx="112.723" cy="3.416" r="3.416" fill="#fff"/><circle cx="112.723" cy="28.693" r="3.416" fill="#fff"/><circle cx="112.723" cy="53.971" r="3.416" fill="#fff"/><circle cx="112.723" cy="79.247" r="3.416" fill="#fff"/><circle cx="134.584" cy="3.416" r="3.416" fill="#fff"/><circle cx="134.584" cy="28.693" r="3.416" fill="#fff"/><circle cx="134.584" cy="53.971" r="3.416" fill="#fff"/><circle cx="134.584" cy="79.247" r="3.416" fill="#fff"/><circle cx="156.446" cy="3.416" r="3.416" fill="#fff"/><circle cx="156.446" cy="28.693" r="3.416" fill="#fff"/><circle cx="156.446" cy="53.971" r="3.416" fill="#fff"/><circle cx="178.307" cy="28.693" r="3.416" fill="#fff"/><circle cx="178.307" cy="3.416" r="3.416" fill="#fff"/><circle cx="178.307" cy="53.971" r="3.416" fill="#fff"/></svg>