<svg width="24" height="24" fill="none" xmlns="http://www.w3.org/2000/svg"><path d="M12 22.547c5.825 0 10.547-4.722 10.547-10.547S17.825 1.453 12 1.453 1.453 6.175 1.453 12 6.175 22.547 12 22.547z" fill="url(#paint0_linear_53748_1946)"/><path d="M14.24 6.14H9.764a3.62 3.62 0 00-3.619 3.62v4.476a3.621 3.621 0 003.619 3.619h4.476a3.621 3.621 0 003.62-3.62V9.76a3.621 3.621 0 00-3.62-3.618zm2.311 8.1a2.318 2.318 0 01-2.315 2.316H9.759a2.318 2.318 0 01-2.316-2.315V9.764A2.318 2.318 0 019.76 7.448h4.477a2.318 2.318 0 012.315 2.316v4.477z" fill="#fff"/><path d="M12 9.004A3 3 0 009.004 12 3 3 0 0012 14.995 3 3 0 0014.995 12 3 3 0 0012 9.004zm0 4.815a1.82 1.82 0 01-1.819-1.82A1.82 1.82 0 0112 10.182 1.82 1.82 0 0113.819 12a1.82 1.82 0 01-1.82 1.819zM15.223 9.333a.506.506 0 10-.162-1 .506.506 0 00.162 1z" fill="#fff"/><defs><linearGradient id="paint0_linear_53748_1946" x1="3.969" y1="20.031" x2="18.958" y2="5.042" gradientUnits="userSpaceOnUse"><stop stop-color="#FEE411"/><stop offset=".052" stop-color="#FEDB16"/><stop offset=".138" stop-color="#FEC125"/><stop offset=".248" stop-color="#FE983D"/><stop offset=".376" stop-color="#FE5F5E"/><stop offset=".5" stop-color="#FE2181"/><stop offset="1" stop-color="#9000DC"/></linearGradient></defs></svg>