<?xml version="1.0" encoding="utf-8"?><svg viewBox="0 0 81 130" xmlns="http://www.w3.org/2000/svg" xmlns:xlink="http://www.w3.org/1999/xlink"><style>:root>svg{display:none}:root>svg:target{display:block}</style><svg fill="none" viewBox="0 0 24 24" id="arrowNext" xmlns="http://www.w3.org/2000/svg"><path d="M3.75 12h16.5M13.5 5.25L20.25 12l-6.75 6.75" stroke="#EDD14F" stroke-width="2" stroke-linecap="round" stroke-linejoin="round"/></svg><svg fill="none" viewBox="0 0 24 24" id="insta" xmlns="http://www.w3.org/2000/svg"><path d="M12 22.547c5.825 0 10.547-4.722 10.547-10.547S17.825 1.453 12 1.453 1.453 6.175 1.453 12 6.175 22.547 12 22.547z" fill="url(#bpaint0_linear_53748_1946)"/><path d="M14.24 6.14H9.764a3.62 3.62 0 00-3.619 3.62v4.476a3.621 3.621 0 003.619 3.619h4.476a3.621 3.621 0 003.62-3.62V9.76a3.621 3.621 0 00-3.62-3.618zm2.311 8.1a2.318 2.318 0 01-2.315 2.316H9.759a2.318 2.318 0 01-2.316-2.315V9.764A2.318 2.318 0 019.76 7.448h4.477a2.318 2.318 0 012.315 2.316v4.477z" fill="#fff"/><path d="M12 9.004A3 3 0 009.004 12 3 3 0 0012 14.995 3 3 0 0014.995 12 3 3 0 0012 9.004zm0 4.815a1.82 1.82 0 01-1.819-1.82A1.82 1.82 0 0112 10.182 1.82 1.82 0 0113.819 12a1.82 1.82 0 01-1.82 1.819zM15.223 9.333a.506.506 0 10-.162-1 .506.506 0 00.162 1z" fill="#fff"/><defs><linearGradient id="bpaint0_linear_53748_1946" x1="3.969" y1="20.031" x2="18.958" y2="5.042" gradientUnits="userSpaceOnUse"><stop stop-color="#FEE411"/><stop offset=".052" stop-color="#FEDB16"/><stop offset=".138" stop-color="#FEC125"/><stop offset=".248" stop-color="#FE983D"/><stop offset=".376" stop-color="#FE5F5E"/><stop offset=".5" stop-color="#FE2181"/><stop offset="1" stop-color="#9000DC"/></linearGradient></defs></svg><svg fill="none" viewBox="0 0 63 12" id="logoRossait" xmlns="http://www.w3.org/2000/svg"><path fill-rule="evenodd" clip-rule="evenodd" d="M62.993 3.969c-.004.227-.208.411-.458.411h-1.413l-.443.095a.402.402 0 00-.171.323V10.9c0 .229.09.418-.162.418H58.49c-.252 0-.458-.189-.458-.418V4.798a.39.39 0 00-.023-.124c-.059-.17-.179-.294-.383-.294h-1.63c-.252 0-.458-.188-.458-.417V2.798c0-.229.206-.417.458-.417h6.539a.5.5 0 01.183.035.42.42 0 01.275.382v1.171zm-9.138 7.346h-1.561c-.252 0-.457-.187-.457-.417v-1.55c0-.229-.117-.287-.26-.129l-.176.169c-.176.169-.37.337-.582.506-.08.066-.164.131-.249.197h.001l-.001.001-.219.17c-.059.045-.118.087-.177.131-.56.375-1.528.963-3.029.922h-.691c-.252 0-.458-.187-.458-.417V2.796c0-.229.206-.417.458-.417h1.612c.252 0 .458.188.458.417v5.561c0 .229.144.332.321.228 0 0 .104 0 .271-.112.167-.112.339-.237.515-.374a9.68 9.68 0 00.832-.692c.273-.253.528-.508.766-.765a10.47 10.47 0 00.608-.747V2.796c0-.229.205-.417.457-.417h1.561c.251 0 .457.188.457.417v8.102c0 .23-.206.417-.457.417zm-2.106-9.806a3.008 3.008 0 01-1.508.376c-.55 0-1.047-.125-1.491-.376a1.814 1.814 0 01-.488-.393c-.408-.516.137-.629.137-.629h3.549c.321 0 .486.223.366.494 0 0-.122.277-.565.528zm-7.447 9.809h-1.615c-.479 0-.616-.282-.656-.41l-.012-.059a5.215 5.215 0 01-.029-.15h-2.619V8.684h2.096a108.54 108.54 0 00-.244-.786l-.083-.272a.357.357 0 00-.013-.084s-.011-.035-.069-.196l-.023-.063a21.426 21.426 0 00-.238-.626l-.006-.015c-.139-.339-.271-.63-.396-.871-.128-.244-.21-.403-.245-.476-.23.447-.44.916-.636 1.4-.029.072-.061.142-.09.214-.153.391-.291 1.104-.422 1.494l-.154.011h-2.621c.14-.442.289-1.2.446-1.63a29.38 29.38 0 01.743-1.855c.389-.879.787-1.633 1.195-2.262.052-.075.235-.286.652-.286H41c.252 0 .563.162.691.358 0 0 .456.704.751 1.262A22.07 22.07 0 0143.569 6.5c.142.374.273.745.394 1.113.116.356.226.71.321 1.061l.003.01h.015v.059c.207.767.375 1.476.504 2.126.018.142-.002.449-.504.449zM35.504 4.21l-.222-.027a4.414 4.414 0 00-.709-.026c-.967.036-1.701.306-2.202.811-.49.493-.721 1.124-.697 1.889v.049c.035.756.229 1.315.583 1.676s.737.609 1.15.743c.219.063.433.152.642.171.168.017.318.024.451.023h3.648v1.894h-2.552l-9.697.013h-.328c-.148-.004-.322-.016-.429-.023-1.23-.094-2.162-.42-2.793-1.076-.795-.826-1.259-1.754-1.392-2.782a3.554 3.554 0 01-.03-.242 4.773 4.773 0 01-.02-.655c.035-1.156.451-2.131 1.252-2.924.894-.887 2.183-1.361 3.868-1.425a8.033 8.033 0 011.823.132l.068 1.493c.01.225-.15.376-.355.334l-.222-.027c-.222-.026-.458-.035-.708-.026-.968.037-1.702.307-2.202.812-.457.459-.688 1.039-.698 1.735-.001.068-.003.134.001.202.034.756.228 1.316.582 1.678.354.36.737.608 1.15.742.219.063.433.104.642.124.168.016.318.023.452.022l3.113-.006a4.618 4.618 0 01-.775-2.018 5.212 5.212 0 01-.049-.484l-.003-.16c-.021-1.268.396-2.327 1.253-3.177.894-.886 2.184-1.362 3.868-1.425a7.849 7.849 0 011.823.132l.068 1.493c.011.225-.149.376-.354.335zm-17.075 6.113c-.982.792-2.186 1.187-3.612 1.187-1.444 0-2.653-.395-3.626-1.187-.973-.79-1.459-1.948-1.459-3.474 0-.274.016-.535.047-.786.01-.077.025-.152.038-.228.174-1.04.629-1.867 1.374-2.473.973-.791 2.182-1.186 3.626-1.186 1.426 0 2.63.395 3.612 1.186.928.748 1.417 1.828 1.468 3.24.002.081.005.163.005.247 0 .312-.022.606-.063.887-.159 1.095-.628 1.958-1.41 2.587zm-1.415-3.881a3.224 3.224 0 00-.493-1.448c-.344-.53-.912-.794-1.704-.794-.81 0-1.383.264-1.717.794a3.18 3.18 0 00-.433 1.12 3.925 3.925 0 00-.064.554c-.002.06-.005.12-.005.181 0 .707.17 1.325.509 1.855.338.53.909.795 1.71.795.792 0 1.36-.265 1.704-.795.252-.39.411-.829.478-1.315a3.947 3.947 0 00.015-.947zM4.601 9.294l-.13-.002c-.312-.007-.319-.329-.319-.329V7.512c0-.18.131-.225.199-.237l.013-.001.026-.002-.001-.001a1.73 1.73 0 00.846-.331c.308-.237.463-.6.463-1.091 0-.056-.007-.15-.02-.283a.872.872 0 00-.057-.226A1.292 1.292 0 005.433 5l-.028-.032a1.81 1.81 0 00-.084-.091l-.015-.015-.007-.003c-.414-.374-1.065-.456-1.332-.473l-.005-.003-.046-.001-.069-.002.001.001-.065-.001h-.797c-.252 0-.458.187-.458.418V10.9c0 .229-.206.418-.458.418H.458c-.252 0-.458-.189-.458-.418V2.798c0-.143.08-.27.202-.345a.478.478 0 01.256-.072H3.84c.252 0 .662.025.911.056 0 0 .462.059 1.016.186h.001c.168.039.343.083.517.135.589.205 1.534.702 2.048 1.855a3.127 3.127 0 01.226 1.105l.003.096.002.048c0 .963-.339 1.776-1.017 2.438-.678.662-1.66.994-2.946.994z" fill="#fff"/></svg><svg viewBox="0 0 100 100" id="playBtn" xmlns="http://www.w3.org/2000/svg"><path class="dstroke-solid" fill="none" stroke="#fff" d="M49.9 2.5C23.6 2.8 2.1 24.4 2.5 50.4 2.9 76.5 24.7 98 50.3 97.5c26.4-.6 47.4-21.8 47.2-47.7-.2-26.1-21.8-47.5-47.6-47.3"/><path class="dstroke-dotted" fill="none" stroke="#fff" d="M49.9 2.5C23.6 2.8 2.1 24.4 2.5 50.4 2.9 76.5 24.7 98 50.3 97.5c26.4-.6 47.4-21.8 47.2-47.7-.2-26.1-21.8-47.5-47.6-47.3"/><path class="dicon" fill="#fff" d="M38 69c-1 .5-1.8 0-1.8-1.1V32.1c0-1.1.8-1.6 1.8-1.1l34 18c1 .5 1 1.4 0 1.9L38 69z"/></svg><svg fill="none" viewBox="0 0 81 130" id="rectangle" xmlns="http://www.w3.org/2000/svg"><g opacity=".4" fill="#fff"><circle cx="69.001" cy="126.386" r="3.416" transform="rotate(-180 69 126.386)"/><circle cx="69.001" cy="101.109" r="3.416" transform="rotate(-180 69 101.109)"/><circle cx="69.001" cy="75.832" r="3.416" transform="rotate(-180 69 75.832)"/><circle cx="47.139" cy="126.386" r="3.416" transform="rotate(-180 47.14 126.386)"/><circle cx="47.139" cy="101.109" r="3.416" transform="rotate(-180 47.14 101.109)"/><circle cx="47.139" cy="75.832" r="3.416" transform="rotate(-180 47.14 75.832)"/><circle cx="25.278" cy="126.386" r="3.416" transform="rotate(-180 25.278 126.386)"/><circle cx="25.278" cy="101.109" r="3.416" transform="rotate(-180 25.278 101.109)"/><circle cx="25.278" cy="75.832" r="3.416" transform="rotate(-180 25.278 75.832)"/><circle cx="3.417" cy="101.109" r="3.416" transform="rotate(-180 3.417 101.109)"/><circle cx="3.416" cy="126.386" r="3.416" transform="rotate(-180 3.416 126.386)"/><circle cx="3.417" cy="75.832" r="3.416" transform="rotate(-180 3.417 75.832)"/><circle cx="69.001" cy="53.97" r="3.416" transform="rotate(-180 69 53.97)"/><circle cx="69.001" cy="28.693" r="3.416" transform="rotate(-180 69 28.693)"/><circle cx="69.001" cy="3.416" r="3.416" transform="rotate(-180 69 3.416)"/><circle cx="47.139" cy="53.97" r="3.416" transform="rotate(-180 47.14 53.97)"/><circle cx="47.139" cy="28.693" r="3.416" transform="rotate(-180 47.14 28.693)"/><circle cx="47.139" cy="3.416" r="3.416" transform="rotate(-180 47.14 3.416)"/><circle cx="25.278" cy="53.97" r="3.416" transform="rotate(-180 25.278 53.97)"/><circle cx="25.278" cy="28.693" r="3.416" transform="rotate(-180 25.278 28.693)"/><circle cx="25.278" cy="3.416" r="3.416" transform="rotate(-180 25.278 3.416)"/><circle cx="3.417" cy="28.693" r="3.416" transform="rotate(-180 3.417 28.693)"/><circle cx="3.416" cy="53.97" r="3.416" transform="rotate(-180 3.416 53.97)"/><circle cx="3.417" cy="3.416" r="3.416" transform="rotate(-180 3.417 3.416)"/></g></svg><svg fill="none" viewBox="0 0 24 24" id="telegram" xmlns="http://www.w3.org/2000/svg"><path d="M12 24c6.627 0 12-5.373 12-12S18.627 0 12 0 0 5.373 0 12s5.373 12 12 12z" fill="url(#fpaint0_linear_53748_1970)"/><path fill-rule="evenodd" clip-rule="evenodd" d="M9.8 17.5c-.388 0-.322-.146-.456-.517L8.2 13.221l8.8-5.22" fill="#C8DAEA"/><path fill-rule="evenodd" clip-rule="evenodd" d="M9.8 17.5c.3 0 .432-.137.6-.3l1.6-1.556-1.996-1.204" fill="#A9C9DD"/><path fill-rule="evenodd" clip-rule="evenodd" d="M10.004 14.441l4.836 3.573c.552.305.95.147 1.087-.512l1.969-9.277c.201-.808-.308-1.174-.836-.934L5.5 11.748c-.788.316-.784.756-.143.953l2.966.925 6.868-4.332c.324-.197.621-.091.377.126" fill="url(#fpaint1_linear_53748_1970)"/><defs><linearGradient id="fpaint0_linear_53748_1970" x1="16.001" y1="4.001" x2="10.001" y2="18" gradientUnits="userSpaceOnUse"><stop stop-color="#37AEE2"/><stop offset="1" stop-color="#1E96C8"/></linearGradient><linearGradient id="fpaint1_linear_53748_1970" x1="12.882" y1="12" x2="14.165" y2="16.148" gradientUnits="userSpaceOnUse"><stop stop-color="#EFF7FC"/><stop offset="1" stop-color="#fff"/></linearGradient></defs></svg><svg fill="none" viewBox="0 0 24 24" id="viber" xmlns="http://www.w3.org/2000/svg"><path d="M12 0c6.627 0 12 5.373 12 12s-5.373 12-12 12S0 18.627 0 12 5.373 0 12 0z" fill="#7F4DA0"/><path fill-rule="evenodd" clip-rule="evenodd" d="M14.615 11.508c-.049-.393-.17-.703-.385-.977-.279-.353-.636-.564-1.164-.689-.344-.084-.483-.074-.608.04-.116.106-.138.32-.05.458.063.1.134.137.334.176.267.049.45.112.618.208.356.205.521.526.539 1.046.008.244.03.32.114.406.158.158.44.127.559-.062.044-.071.05-.103.055-.268a2.648 2.648 0 00-.012-.338z" fill="#fff"/><path fill-rule="evenodd" clip-rule="evenodd" d="M16.007 11.952c-.07-1.207-.543-2.177-1.387-2.86a3.909 3.909 0 00-1.682-.777c-.231-.046-.657-.083-.73-.062a.448.448 0 00-.21.162.44.44 0 00-.016.33c.063.159.18.214.51.243a3.15 3.15 0 011.426.487c.452.3.811.712 1.043 1.195.201.415.325 1.014.321 1.55-.001.193.029.302.107.382.117.123.289.15.44.069.168-.089.207-.243.178-.719zM17.193 16.329a1.342 1.342 0 00-.119-.238c-.248-.377-1.58-1.426-2.246-1.769-.38-.196-.662-.261-.87-.2-.225.064-.343.169-.719.639a3.513 3.513 0 01-.348.392.914.914 0 01-.445.13c-.33-.003-.926-.217-1.384-.499-.357-.218-.813-.608-1.164-.995-.413-.454-.695-.855-.918-1.307-.287-.58-.36-.936-.24-1.195a.97.97 0 01.087-.157c.018-.02.203-.173.407-.34.402-.32.467-.394.542-.614.094-.28.069-.565-.077-.852a11.899 11.899 0 00-.618-1.002c-.282-.404-.983-1.269-1.122-1.386-.252-.206-.575-.242-.932-.103-.376.147-1.08.718-1.382 1.116-.272.361-.376.617-.392.954-.013.278.01.393.156.748 1.14 2.784 2.841 5.007 5.178 6.771 1.22.922 2.487 1.624 3.8 2.104.766.28 1.099.294 1.49.064.166-.1.575-.522.804-.83.378-.51.518-.747.557-.935a1.083 1.083 0 00-.045-.496z" fill="#fff"/><path fill-rule="evenodd" clip-rule="evenodd" d="M17.424 12.23a5.498 5.498 0 00-.38-1.868c-.237-.614-.476-1.015-.928-1.557-.428-.508-.76-.798-1.287-1.12-.735-.45-1.629-.749-2.631-.874-.342-.044-.42-.04-.524.03-.203.132-.2.463.003.593.068.042.128.057.4.093.42.056.69.11 1.01.197 1.256.343 2.222 1.045 2.868 2.086.54.868.764 1.736.732 2.845-.01.375-.003.441.054.531.11.168.4.201.548.062.092-.085.11-.149.128-.47a8.16 8.16 0 00.007-.549z" fill="#fff"/></svg><svg fill="none" viewBox="0 0 24 24" id="vk" xmlns="http://www.w3.org/2000/svg"><path fill-rule="evenodd" clip-rule="evenodd" d="M0 12C0 5.373 5.373 0 12 0s12 5.373 12 12-5.373 12-12 12S0 18.627 0 12z" fill="#45668E"/><path fill-rule="evenodd" clip-rule="evenodd" d="M17.705 9.315c.089-.297 0-.515-.424-.515h-1.4c-.356 0-.52.189-.609.396 0 0-.712 1.736-1.72 2.863-.327.326-.475.43-.653.43-.089 0-.222-.104-.222-.4V9.314c0-.356-.1-.515-.396-.515h-2.2c-.222 0-.356.166-.356.322 0 .338.504.415.556 1.365v2.061c0 .452-.082.534-.26.534-.474 0-1.629-1.743-2.313-3.737-.134-.388-.269-.545-.627-.545h-1.4c-.4 0-.48.189-.48.396 0 .371.475 2.21 2.21 4.643 1.157 1.66 2.787 2.561 4.27 2.561.89 0 1-.2 1-.544V14.6c0-.4.085-.48.366-.48.208 0 .564.104 1.394.905.95.95 1.106 1.375 1.64 1.375h1.4c.4 0 .6-.2.485-.594-.127-.394-.58-.964-1.181-1.641-.326-.386-.816-.801-.964-1.009-.208-.267-.148-.385 0-.623 0 0 1.706-2.402 1.884-3.218z" fill="#fff"/></svg><svg fill="none" viewBox="0 0 24 24" id="whatsapp" xmlns="http://www.w3.org/2000/svg"><path d="M12 24c6.627 0 12-5.373 12-12S18.627 0 12 0 0 5.373 0 12s5.373 12 12 12z" fill="#25D366"/><path fill-rule="evenodd" clip-rule="evenodd" d="M12.396 18.676h-.003a7.13 7.13 0 01-3.41-.868l-3.782.992 1.012-3.698a7.123 7.123 0 01-.952-3.567C5.262 7.601 8.463 4.4 12.396 4.4c1.909 0 3.7.744 5.048 2.093a7.093 7.093 0 012.088 5.048c-.002 3.933-3.202 7.134-7.136 7.135zm-3.237-2.16l.216.128c.91.54 1.955.827 3.019.827h.002a5.94 5.94 0 005.93-5.93 5.894 5.894 0 00-1.735-4.197A5.89 5.89 0 0012.4 5.605a5.94 5.94 0 00-5.934 5.93c0 1.121.313 2.213.907 3.157l.141.224-.6 2.189 2.246-.59zm6.832-3.278c-.044-.075-.163-.12-.342-.209-.178-.089-1.054-.52-1.218-.58-.163-.06-.282-.09-.401.09-.119.178-.46.58-.565.699-.104.118-.208.133-.386.044-.178-.09-.753-.277-1.434-.885a5.373 5.373 0 01-.992-1.235c-.104-.179-.01-.275.079-.364.08-.08.178-.208.267-.312.09-.104.119-.179.178-.298.06-.119.03-.223-.014-.312-.045-.09-.402-.967-.55-1.324-.145-.348-.292-.3-.401-.306a7.091 7.091 0 00-.342-.006.655.655 0 00-.476.223c-.163.178-.624.61-.624 1.487 0 .878.64 1.726.728 1.845.09.119 1.258 1.92 3.046 2.692.426.184.758.293 1.017.375.427.136.816.117 1.123.071.342-.051 1.055-.431 1.203-.848.149-.416.149-.773.104-.848z" fill="#FEFEFE"/></svg></svg>