<svg width="275" height="248" fill="none" xmlns="http://www.w3.org/2000/svg"><circle cx="126.387" cy="3.416" r="3.416" transform="rotate(90 126.387 3.416)" fill="#E8E6E6"/><circle cx="101.11" cy="3.416" r="3.416" transform="rotate(90 101.11 3.416)" fill="#E8E6E6"/><circle cx="75.832" cy="3.416" r="3.416" transform="rotate(90 75.832 3.416)" fill="#E8E6E6"/><circle cx="126.387" cy="25.277" r="3.416" transform="rotate(90 126.387 25.277)" fill="#E8E6E6"/><circle cx="101.11" cy="25.277" r="3.416" transform="rotate(90 101.11 25.277)" fill="#E8E6E6"/><circle cx="75.832" cy="25.277" r="3.416" transform="rotate(90 75.832 25.277)" fill="#E8E6E6"/><circle cx="126.387" cy="47.139" r="3.416" transform="rotate(90 126.387 47.139)" fill="#E8E6E6"/><circle cx="101.11" cy="47.139" r="3.416" transform="rotate(90 101.11 47.139)" fill="#E8E6E6"/><circle cx="75.832" cy="47.139" r="3.416" transform="rotate(90 75.832 47.139)" fill="#E8E6E6"/><circle cx="126.387" cy="69" r="3.416" transform="rotate(90 126.387 69)" fill="#E8E6E6"/><circle cx="101.11" cy="69" r="3.416" transform="rotate(90 101.11 69)" fill="#E8E6E6"/><circle cx="75.832" cy="69" r="3.416" transform="rotate(90 75.832 69)" fill="#E8E6E6"/><circle cx="126.387" cy="90.861" r="3.416" transform="rotate(90 126.387 90.861)" fill="#E8E6E6"/><circle cx="101.11" cy="90.861" r="3.416" transform="rotate(90 101.11 90.861)" fill="#E8E6E6"/><circle cx="75.832" cy="90.861" r="3.416" transform="rotate(90 75.832 90.861)" fill="#E8E6E6"/><circle cx="126.387" cy="112.723" r="3.416" transform="rotate(90 126.387 112.723)" fill="#E8E6E6"/><circle cx="101.11" cy="112.723" r="3.416" transform="rotate(90 101.11 112.723)" fill="#E8E6E6"/><circle cx="75.832" cy="112.723" r="3.416" transform="rotate(90 75.832 112.723)" fill="#E8E6E6"/><circle cx="126.387" cy="134.584" r="3.416" transform="rotate(90 126.387 134.584)" fill="#E8E6E6"/><circle cx="101.11" cy="134.584" r="3.416" transform="rotate(90 101.11 134.584)" fill="#E8E6E6"/><circle cx="75.832" cy="134.584" r="3.416" transform="rotate(90 75.832 134.584)" fill="#E8E6E6"/><circle cx="126.387" cy="156.446" r="3.416" transform="rotate(90 126.387 156.446)" fill="#E8E6E6"/><circle cx="101.11" cy="156.446" r="3.416" transform="rotate(90 101.11 156.446)" fill="#E8E6E6"/><circle cx="75.832" cy="156.446" r="3.416" transform="rotate(90 75.832 156.446)" fill="#E8E6E6"/><circle cx="126.387" cy="178.307" r="3.416" transform="rotate(90 126.387 178.307)" fill="#E8E6E6"/><circle cx="101.11" cy="178.307" r="3.416" transform="rotate(90 101.11 178.307)" fill="#E8E6E6"/><circle cx="75.832" cy="178.307" r="3.416" transform="rotate(90 75.832 178.307)" fill="#E8E6E6"/><circle cx="126.387" cy="200.168" r="3.416" transform="rotate(90 126.387 200.168)" fill="#E8E6E6"/><circle cx="101.11" cy="200.168" r="3.416" transform="rotate(90 101.11 200.168)" fill="#E8E6E6"/><circle cx="75.832" cy="200.168" r="3.416" transform="rotate(90 75.832 200.168)" fill="#E8E6E6"/><circle cx="126.387" cy="222.03" r="3.416" transform="rotate(90 126.387 222.03)" fill="#E8E6E6"/><circle cx="101.11" cy="222.03" r="3.416" transform="rotate(90 101.11 222.03)" fill="#E8E6E6"/><circle cx="75.832" cy="222.03" r="3.416" transform="rotate(90 75.832 222.03)" fill="#E8E6E6"/><circle cx="101.11" cy="243.891" r="3.416" transform="rotate(90 101.11 243.891)" fill="#E8E6E6"/><circle cx="126.387" cy="243.892" r="3.416" transform="rotate(90 126.387 243.892)" fill="#E8E6E6"/><circle cx="75.832" cy="243.891" r="3.416" transform="rotate(90 75.832 243.891)" fill="#E8E6E6"/><circle cx="53.971" cy="3.416" r="3.416" transform="rotate(90 53.97 3.416)" fill="#E8E6E6"/><circle cx="28.693" cy="3.416" r="3.416" transform="rotate(90 28.693 3.416)" fill="#E8E6E6"/><circle cx="3.416" cy="3.416" r="3.416" transform="rotate(90 3.416 3.416)" fill="#E8E6E6"/><circle cx="53.971" cy="25.277" r="3.416" transform="rotate(90 53.97 25.277)" fill="#E8E6E6"/><circle cx="28.693" cy="25.277" r="3.416" transform="rotate(90 28.693 25.277)" fill="#E8E6E6"/><circle cx="3.416" cy="25.277" r="3.416" transform="rotate(90 3.416 25.277)" fill="#E8E6E6"/><circle cx="53.971" cy="47.139" r="3.416" transform="rotate(90 53.97 47.139)" fill="#E8E6E6"/><circle cx="28.693" cy="47.139" r="3.416" transform="rotate(90 28.693 47.139)" fill="#E8E6E6"/><circle cx="3.416" cy="47.139" r="3.416" transform="rotate(90 3.416 47.139)" fill="#E8E6E6"/><circle cx="53.971" cy="69" r="3.416" transform="rotate(90 53.97 69)" fill="#E8E6E6"/><circle cx="28.693" cy="69" r="3.416" transform="rotate(90 28.693 69)" fill="#E8E6E6"/><circle cx="3.416" cy="69" r="3.416" transform="rotate(90 3.416 69)" fill="#E8E6E6"/><circle cx="53.971" cy="90.861" r="3.416" transform="rotate(90 53.97 90.861)" fill="#E8E6E6"/><circle cx="28.693" cy="90.861" r="3.416" transform="rotate(90 28.693 90.861)" fill="#E8E6E6"/><circle cx="3.416" cy="90.861" r="3.416" transform="rotate(90 3.416 90.861)" fill="#E8E6E6"/><circle cx="53.971" cy="112.723" r="3.416" transform="rotate(90 53.97 112.723)" fill="#E8E6E6"/><circle cx="28.693" cy="112.723" r="3.416" transform="rotate(90 28.693 112.723)" fill="#E8E6E6"/><circle cx="3.416" cy="112.723" r="3.416" transform="rotate(90 3.416 112.723)" fill="#E8E6E6"/><circle cx="53.971" cy="134.584" r="3.416" transform="rotate(90 53.97 134.584)" fill="#E8E6E6"/><circle cx="28.693" cy="134.584" r="3.416" transform="rotate(90 28.693 134.584)" fill="#E8E6E6"/><circle cx="3.416" cy="134.584" r="3.416" transform="rotate(90 3.416 134.584)" fill="#E8E6E6"/><circle cx="53.971" cy="156.446" r="3.416" transform="rotate(90 53.97 156.446)" fill="#E8E6E6"/><circle cx="28.693" cy="156.446" r="3.416" transform="rotate(90 28.693 156.446)" fill="#E8E6E6"/><circle cx="3.416" cy="156.446" r="3.416" transform="rotate(90 3.416 156.446)" fill="#E8E6E6"/><circle cx="53.971" cy="178.307" r="3.416" transform="rotate(90 53.97 178.307)" fill="#E8E6E6"/><circle cx="28.693" cy="178.307" r="3.416" transform="rotate(90 28.693 178.307)" fill="#E8E6E6"/><circle cx="3.416" cy="178.307" r="3.416" transform="rotate(90 3.416 178.307)" fill="#E8E6E6"/><circle cx="53.971" cy="200.168" r="3.416" transform="rotate(90 53.97 200.168)" fill="#E8E6E6"/><circle cx="28.693" cy="200.168" r="3.416" transform="rotate(90 28.693 200.168)" fill="#E8E6E6"/><circle cx="3.416" cy="200.168" r="3.416" transform="rotate(90 3.416 200.168)" fill="#E8E6E6"/><circle cx="53.971" cy="222.03" r="3.416" transform="rotate(90 53.97 222.03)" fill="#E8E6E6"/><circle cx="28.693" cy="222.03" r="3.416" transform="rotate(90 28.693 222.03)" fill="#E8E6E6"/><circle cx="3.416" cy="222.03" r="3.416" transform="rotate(90 3.416 222.03)" fill="#E8E6E6"/><circle cx="28.693" cy="243.891" r="3.416" transform="rotate(90 28.693 243.891)" fill="#E8E6E6"/><circle cx="53.971" cy="243.892" r="3.416" transform="rotate(90 53.97 243.892)" fill="#E8E6E6"/><circle cx="3.416" cy="243.891" r="3.416" transform="rotate(90 3.416 243.891)" fill="#E8E6E6"/><circle cx="271.22" cy="3.416" r="3.416" transform="rotate(90 271.22 3.416)" fill="#E8E6E6"/><circle cx="245.942" cy="3.416" r="3.416" transform="rotate(90 245.942 3.416)" fill="#E8E6E6"/><circle cx="220.665" cy="3.416" r="3.416" transform="rotate(90 220.665 3.416)" fill="#E8E6E6"/><circle cx="271.22" cy="25.277" r="3.416" transform="rotate(90 271.22 25.277)" fill="#E8E6E6"/><circle cx="245.942" cy="25.277" r="3.416" transform="rotate(90 245.942 25.277)" fill="#E8E6E6"/><circle cx="220.665" cy="25.277" r="3.416" transform="rotate(90 220.665 25.277)" fill="#E8E6E6"/><circle cx="271.22" cy="47.139" r="3.416" transform="rotate(90 271.22 47.139)" fill="#E8E6E6"/><circle cx="245.942" cy="47.139" r="3.416" transform="rotate(90 245.942 47.139)" fill="#E8E6E6"/><circle cx="220.665" cy="47.139" r="3.416" transform="rotate(90 220.665 47.139)" fill="#E8E6E6"/><circle cx="271.22" cy="69" r="3.416" transform="rotate(90 271.22 69)" fill="#E8E6E6"/><circle cx="245.942" cy="69" r="3.416" transform="rotate(90 245.942 69)" fill="#E8E6E6"/><circle cx="220.665" cy="69" r="3.416" transform="rotate(90 220.665 69)" fill="#E8E6E6"/><circle cx="271.22" cy="90.861" r="3.416" transform="rotate(90 271.22 90.861)" fill="#E8E6E6"/><circle cx="245.942" cy="90.861" r="3.416" transform="rotate(90 245.942 90.861)" fill="#E8E6E6"/><circle cx="220.665" cy="90.861" r="3.416" transform="rotate(90 220.665 90.861)" fill="#E8E6E6"/><circle cx="271.22" cy="112.723" r="3.416" transform="rotate(90 271.22 112.723)" fill="#E8E6E6"/><circle cx="245.942" cy="112.723" r="3.416" transform="rotate(90 245.942 112.723)" fill="#E8E6E6"/><circle cx="220.665" cy="112.723" r="3.416" transform="rotate(90 220.665 112.723)" fill="#E8E6E6"/><circle cx="271.22" cy="134.584" r="3.416" transform="rotate(90 271.22 134.584)" fill="#E8E6E6"/><circle cx="245.942" cy="134.584" r="3.416" transform="rotate(90 245.942 134.584)" fill="#E8E6E6"/><circle cx="220.665" cy="134.584" r="3.416" transform="rotate(90 220.665 134.584)" fill="#E8E6E6"/><circle cx="271.22" cy="156.446" r="3.416" transform="rotate(90 271.22 156.446)" fill="#E8E6E6"/><circle cx="245.942" cy="156.446" r="3.416" transform="rotate(90 245.942 156.446)" fill="#E8E6E6"/><circle cx="220.665" cy="156.446" r="3.416" transform="rotate(90 220.665 156.446)" fill="#E8E6E6"/><circle cx="271.22" cy="178.307" r="3.416" transform="rotate(90 271.22 178.307)" fill="#E8E6E6"/><circle cx="245.942" cy="178.307" r="3.416" transform="rotate(90 245.942 178.307)" fill="#E8E6E6"/><circle cx="220.665" cy="178.307" r="3.416" transform="rotate(90 220.665 178.307)" fill="#E8E6E6"/><circle cx="271.22" cy="200.168" r="3.416" transform="rotate(90 271.22 200.168)" fill="#E8E6E6"/><circle cx="245.942" cy="200.168" r="3.416" transform="rotate(90 245.942 200.168)" fill="#E8E6E6"/><circle cx="220.665" cy="200.168" r="3.416" transform="rotate(90 220.665 200.168)" fill="#E8E6E6"/><circle cx="271.22" cy="222.03" r="3.416" transform="rotate(90 271.22 222.03)" fill="#E8E6E6"/><circle cx="245.942" cy="222.03" r="3.416" transform="rotate(90 245.942 222.03)" fill="#E8E6E6"/><circle cx="220.665" cy="222.03" r="3.416" transform="rotate(90 220.665 222.03)" fill="#E8E6E6"/><circle cx="245.942" cy="243.891" r="3.416" transform="rotate(90 245.942 243.891)" fill="#E8E6E6"/><circle cx="271.22" cy="243.892" r="3.416" transform="rotate(90 271.22 243.892)" fill="#E8E6E6"/><circle cx="220.665" cy="243.891" r="3.416" transform="rotate(90 220.665 243.891)" fill="#E8E6E6"/><circle cx="198.803" cy="3.416" r="3.416" transform="rotate(90 198.803 3.416)" fill="#E8E6E6"/><circle cx="173.526" cy="3.416" r="3.416" transform="rotate(90 173.526 3.416)" fill="#E8E6E6"/><circle cx="148.249" cy="3.416" r="3.416" transform="rotate(90 148.249 3.416)" fill="#E8E6E6"/><circle cx="198.803" cy="25.277" r="3.416" transform="rotate(90 198.803 25.277)" fill="#E8E6E6"/><circle cx="173.526" cy="25.277" r="3.416" transform="rotate(90 173.526 25.277)" fill="#E8E6E6"/><circle cx="148.249" cy="25.277" r="3.416" transform="rotate(90 148.249 25.277)" fill="#E8E6E6"/><circle cx="198.803" cy="47.139" r="3.416" transform="rotate(90 198.803 47.139)" fill="#E8E6E6"/><circle cx="173.526" cy="47.139" r="3.416" transform="rotate(90 173.526 47.139)" fill="#E8E6E6"/><circle cx="148.249" cy="47.139" r="3.416" transform="rotate(90 148.249 47.139)" fill="#E8E6E6"/><circle cx="198.803" cy="69" r="3.416" transform="rotate(90 198.803 69)" fill="#E8E6E6"/><circle cx="173.526" cy="69" r="3.416" transform="rotate(90 173.526 69)" fill="#E8E6E6"/><circle cx="148.249" cy="69" r="3.416" transform="rotate(90 148.249 69)" fill="#E8E6E6"/><circle cx="198.803" cy="90.861" r="3.416" transform="rotate(90 198.803 90.861)" fill="#E8E6E6"/><circle cx="173.526" cy="90.861" r="3.416" transform="rotate(90 173.526 90.861)" fill="#E8E6E6"/><circle cx="148.249" cy="90.861" r="3.416" transform="rotate(90 148.249 90.861)" fill="#E8E6E6"/><circle cx="198.803" cy="112.723" r="3.416" transform="rotate(90 198.803 112.723)" fill="#E8E6E6"/><circle cx="173.526" cy="112.723" r="3.416" transform="rotate(90 173.526 112.723)" fill="#E8E6E6"/><circle cx="148.249" cy="112.723" r="3.416" transform="rotate(90 148.249 112.723)" fill="#E8E6E6"/><circle cx="198.803" cy="134.584" r="3.416" transform="rotate(90 198.803 134.584)" fill="#E8E6E6"/><circle cx="173.526" cy="134.584" r="3.416" transform="rotate(90 173.526 134.584)" fill="#E8E6E6"/><circle cx="148.249" cy="134.584" r="3.416" transform="rotate(90 148.249 134.584)" fill="#E8E6E6"/><circle cx="198.803" cy="156.446" r="3.416" transform="rotate(90 198.803 156.446)" fill="#E8E6E6"/><circle cx="173.526" cy="156.446" r="3.416" transform="rotate(90 173.526 156.446)" fill="#E8E6E6"/><circle cx="148.249" cy="156.446" r="3.416" transform="rotate(90 148.249 156.446)" fill="#E8E6E6"/><circle cx="198.803" cy="178.307" r="3.416" transform="rotate(90 198.803 178.307)" fill="#E8E6E6"/><circle cx="173.526" cy="178.307" r="3.416" transform="rotate(90 173.526 178.307)" fill="#E8E6E6"/><circle cx="148.249" cy="178.307" r="3.416" transform="rotate(90 148.249 178.307)" fill="#E8E6E6"/><circle cx="198.803" cy="200.168" r="3.416" transform="rotate(90 198.803 200.168)" fill="#E8E6E6"/><circle cx="173.526" cy="200.168" r="3.416" transform="rotate(90 173.526 200.168)" fill="#E8E6E6"/><circle cx="148.249" cy="200.168" r="3.416" transform="rotate(90 148.249 200.168)" fill="#E8E6E6"/><circle cx="198.803" cy="222.03" r="3.416" transform="rotate(90 198.803 222.03)" fill="#E8E6E6"/><circle cx="173.526" cy="222.03" r="3.416" transform="rotate(90 173.526 222.03)" fill="#E8E6E6"/><circle cx="148.249" cy="222.03" r="3.416" transform="rotate(90 148.249 222.03)" fill="#E8E6E6"/><circle cx="173.526" cy="243.891" r="3.416" transform="rotate(90 173.526 243.891)" fill="#E8E6E6"/><circle cx="198.803" cy="243.892" r="3.416" transform="rotate(90 198.803 243.892)" fill="#E8E6E6"/><circle cx="148.249" cy="243.891" r="3.416" transform="rotate(90 148.249 243.891)" fill="#E8E6E6"/></svg>