<svg width="24" height="24" fill="none" xmlns="http://www.w3.org/2000/svg"><path d="M12 24c6.627 0 12-5.373 12-12S18.627 0 12 0 0 5.373 0 12s5.373 12 12 12z" fill="url(#paint0_linear_53748_1970)"/><path fill-rule="evenodd" clip-rule="evenodd" d="M9.8 17.5c-.388 0-.322-.146-.456-.517L8.2 13.221l8.8-5.22" fill="#C8DAEA"/><path fill-rule="evenodd" clip-rule="evenodd" d="M9.8 17.5c.3 0 .432-.137.6-.3l1.6-1.556-1.996-1.204" fill="#A9C9DD"/><path fill-rule="evenodd" clip-rule="evenodd" d="M10.004 14.441l4.836 3.573c.552.305.95.147 1.087-.512l1.969-9.277c.201-.808-.308-1.174-.836-.934L5.5 11.748c-.788.316-.784.756-.143.953l2.966.925 6.868-4.332c.324-.197.621-.091.377.126" fill="url(#paint1_linear_53748_1970)"/><defs><linearGradient id="paint0_linear_53748_1970" x1="16.001" y1="4.001" x2="10.001" y2="18" gradientUnits="userSpaceOnUse"><stop stop-color="#37AEE2"/><stop offset="1" stop-color="#1E96C8"/></linearGradient><linearGradient id="paint1_linear_53748_1970" x1="12.882" y1="12" x2="14.165" y2="16.148" gradientUnits="userSpaceOnUse"><stop stop-color="#EFF7FC"/><stop offset="1" stop-color="#fff"/></linearGradient></defs></svg>