<svg width="24" height="24" fill="none" xmlns="http://www.w3.org/2000/svg"><path d="M12 0c6.627 0 12 5.373 12 12s-5.373 12-12 12S0 18.627 0 12 5.373 0 12 0z" fill="#7F4DA0"/><path fill-rule="evenodd" clip-rule="evenodd" d="M14.615 11.508c-.049-.393-.17-.703-.385-.977-.279-.353-.636-.564-1.164-.689-.344-.084-.483-.074-.608.04-.116.106-.138.32-.05.458.063.1.134.137.334.176.267.049.45.112.618.208.356.205.521.526.539 1.046.008.244.03.32.114.406.158.158.44.127.559-.062.044-.071.05-.103.055-.268a2.648 2.648 0 00-.012-.338z" fill="#fff"/><path fill-rule="evenodd" clip-rule="evenodd" d="M16.007 11.952c-.07-1.207-.543-2.177-1.387-2.86a3.909 3.909 0 00-1.682-.777c-.231-.046-.657-.083-.73-.062a.448.448 0 00-.21.162.44.44 0 00-.016.33c.063.159.18.214.51.243a3.15 3.15 0 011.426.487c.452.3.811.712 1.043 1.195.201.415.325 1.014.321 1.55-.001.193.029.302.107.382.117.123.289.15.44.069.168-.089.207-.243.178-.719zM17.193 16.329a1.342 1.342 0 00-.119-.238c-.248-.377-1.58-1.426-2.246-1.769-.38-.196-.662-.261-.87-.2-.225.064-.343.169-.719.639a3.513 3.513 0 01-.348.392.914.914 0 01-.445.13c-.33-.003-.926-.217-1.384-.499-.357-.218-.813-.608-1.164-.995-.413-.454-.695-.855-.918-1.307-.287-.58-.36-.936-.24-1.195a.97.97 0 01.087-.157c.018-.02.203-.173.407-.34.402-.32.467-.394.542-.614.094-.28.069-.565-.077-.852a11.899 11.899 0 00-.618-1.002c-.282-.404-.983-1.269-1.122-1.386-.252-.206-.575-.242-.932-.103-.376.147-1.08.718-1.382 1.116-.272.361-.376.617-.392.954-.013.278.01.393.156.748 1.14 2.784 2.841 5.007 5.178 6.771 1.22.922 2.487 1.624 3.8 2.104.766.28 1.099.294 1.49.064.166-.1.575-.522.804-.83.378-.51.518-.747.557-.935a1.083 1.083 0 00-.045-.496z" fill="#fff"/><path fill-rule="evenodd" clip-rule="evenodd" d="M17.424 12.23a5.498 5.498 0 00-.38-1.868c-.237-.614-.476-1.015-.928-1.557-.428-.508-.76-.798-1.287-1.12-.735-.45-1.629-.749-2.631-.874-.342-.044-.42-.04-.524.03-.203.132-.2.463.003.593.068.042.128.057.4.093.42.056.69.11 1.01.197 1.256.343 2.222 1.045 2.868 2.086.54.868.764 1.736.732 2.845-.01.375-.003.441.054.531.11.168.4.201.548.062.092-.085.11-.149.128-.47a8.16 8.16 0 00.007-.549z" fill="#fff"/></svg>