<svg width="24" height="24" fill="none" xmlns="http://www.w3.org/2000/svg"><path fill-rule="evenodd" clip-rule="evenodd" d="M0 12C0 5.373 5.373 0 12 0s12 5.373 12 12-5.373 12-12 12S0 18.627 0 12z" fill="#45668E"/><path fill-rule="evenodd" clip-rule="evenodd" d="M17.705 9.315c.089-.297 0-.515-.424-.515h-1.4c-.356 0-.52.189-.609.396 0 0-.712 1.736-1.72 2.863-.327.326-.475.43-.653.43-.089 0-.222-.104-.222-.4V9.314c0-.356-.1-.515-.396-.515h-2.2c-.222 0-.356.166-.356.322 0 .338.504.415.556 1.365v2.061c0 .452-.082.534-.26.534-.474 0-1.629-1.743-2.313-3.737-.134-.388-.269-.545-.627-.545h-1.4c-.4 0-.48.189-.48.396 0 .371.475 2.21 2.21 4.643 1.157 1.66 2.787 2.561 4.27 2.561.89 0 1-.2 1-.544V14.6c0-.4.085-.48.366-.48.208 0 .564.104 1.394.905.95.95 1.106 1.375 1.64 1.375h1.4c.4 0 .6-.2.485-.594-.127-.394-.58-.964-1.181-1.641-.326-.386-.816-.801-.964-1.009-.208-.267-.148-.385 0-.623 0 0 1.706-2.402 1.884-3.218z" fill="#fff"/></svg>