<svg width="24" height="24" fill="none" xmlns="http://www.w3.org/2000/svg"><path d="M12 24c6.627 0 12-5.373 12-12S18.627 0 12 0 0 5.373 0 12s5.373 12 12 12z" fill="#25D366"/><path fill-rule="evenodd" clip-rule="evenodd" d="M12.396 18.676h-.003a7.13 7.13 0 01-3.41-.868l-3.782.992 1.012-3.698a7.123 7.123 0 01-.952-3.567C5.262 7.601 8.463 4.4 12.396 4.4c1.909 0 3.7.744 5.048 2.093a7.093 7.093 0 012.088 5.048c-.002 3.933-3.202 7.134-7.136 7.135zm-3.237-2.16l.216.128c.91.54 1.955.827 3.019.827h.002a5.94 5.94 0 005.93-5.93 5.894 5.894 0 00-1.735-4.197A5.89 5.89 0 0012.4 5.605a5.94 5.94 0 00-5.934 5.93c0 1.121.313 2.213.907 3.157l.141.224-.6 2.189 2.246-.59zm6.832-3.278c-.044-.075-.163-.12-.342-.209-.178-.089-1.054-.52-1.218-.58-.163-.06-.282-.09-.401.09-.119.178-.46.58-.565.699-.104.118-.208.133-.386.044-.178-.09-.753-.277-1.434-.885a5.373 5.373 0 01-.992-1.235c-.104-.179-.01-.275.079-.364.08-.08.178-.208.267-.312.09-.104.119-.179.178-.298.06-.119.03-.223-.014-.312-.045-.09-.402-.967-.55-1.324-.145-.348-.292-.3-.401-.306a7.091 7.091 0 00-.342-.006.655.655 0 00-.476.223c-.163.178-.624.61-.624 1.487 0 .878.64 1.726.728 1.845.09.119 1.258 1.92 3.046 2.692.426.184.758.293 1.017.375.427.136.816.117 1.123.071.342-.051 1.055-.431 1.203-.848.149-.416.149-.773.104-.848z" fill="#FEFEFE"/></svg>